<svg
   xmlns:dc="http://purl.org/dc/elements/1.1/"
   xmlns:cc="http://creativecommons.org/ns#"
   xmlns:rdf="http://www.w3.org/1999/02/22-rdf-syntax-ns#"
   xmlns:svg="http://www.w3.org/2000/svg"
   xmlns="http://www.w3.org/2000/svg"
   version="1.1"
   width="38"
   height="31"
   viewBox="0 0 38 31"
   id="Layer_1"
   xml:space="preserve"><metadata
     id="metadata3039"><rdf:RDF><cc:Work
         rdf:about=""><dc:format>image/svg+xml</dc:format><dc:type
           rdf:resource="http://purl.org/dc/dcmitype/StillImage" /><dc:title></dc:title></cc:Work></rdf:RDF></metadata><defs
     id="defs3037" /><path
     d="M 5.34375,0 C 2.38475,0 0,2.38575 0,5.34375 l 0,5.34375 c 0,2.197 1.32575,4.08125 3.21875,4.90625 l 0,5.8125 4.8125,-5.34375 0,-5.375 c 0,-4.733 3.8305,-8.5625 8.5625,-8.5625 l 5.71875,0 C 21.3355,0.836 19.8055,0 18.0625,0 L 5.34375,0 z m 11.1875,4.3125 c -3.549,0 -6.4375,2.85825 -6.4375,6.40625 l 0,7.46875 c 0,3.549 2.8895,6.4375 6.4375,6.4375 l 11.90625,0 5.65625,6.375 0,-6.90625 c 2.281,-0.986 3.875,-3.26125 3.875,-5.90625 l 0,-7.46875 c 0,-3.548 -2.85825,-6.40625 -6.40625,-6.40625 l -15.03125,0 z m 7.5,2.40625 c 0.427486,0.00451 0.860926,0.039248 1.28125,0.125 1.683387,0.3537111 3.653225,1.990939 3.65625,4.375 -0.003,2.393137 -1.910063,3.300647 -2.59375,3.75 -0.682523,0.446095 -0.9123,0.984161 -0.90625,1.53125 l 0,2 -2.625,0.03125 0,-3 C 22.84585,14.640224 23.149464,14.020028 24,13.46875 l 1.46875,-1 c 0.937801,-0.639241 0.925047,-1.924289 0.34375,-2.5 C 25.297059,9.4716923 24.424769,9.194189 23.5,9.375 c -1.68106,0.3455667 -1.817619,1.572048 -1.8125,2.75 l 0,0.53125 -2.59375,0 c 0.0047,-2.213488 0.245518,-3.237111 1.40625,-4.5 0.96811,-1.0670684 2.248792,-1.4510477 3.53125,-1.4375 z m -1.1875,12.8125 2.625,0 0,2.6875 -2.625,0 0,-2.6875 z"
     id="path3033" />
</svg>